<svg xmlns="http://www.w3.org/2000/svg" xml:space="preserve" viewBox="0 0 700 700"><path d="M320 32c-8.1 0-16.1 1.4-23.7 4.1L15.8 137.4C6.3 140.9 0 149.9 0 160s6.3 19.1 15.8 22.6l280.4 101c7.6 2.7 15.6 4.1 23.7 4.1s16.1-1.4 23.7-4.1l280.6-101c9.5-3.4 15.8-12.5 15.8-22.6s-6.3-19.1-15.8-22.6L343.7 36.1c-7.6-2.7-15.6-4.1-23.7-4.1M128 408c0 35.3 86 72 192 72s192-36.7 192-72l-15.3-145.4L354.5 314c-11.1 4-22.8 6-34.5 6s-23.5-2-34.5-6l-142.2-51.4z" transform="translate(59.187 117.35)scale(.90879)"/></svg>